{
  "accessors": [
    {
      "bufferView": 2,
      "componentType": 5126,
      "count": 1892,
      "max": [
        69.13898468017578,
        121.50407409667969,
        182.43072509765625
      ],
      "min": [
        -69.13898468017578,
        -81.35930633544922,
        6.53887939453125
      ],
      "type": "VEC3"
    },
    {
      "bufferView": 2,
      "byteOffset": 22704,
      "componentType": 5126,
      "count": 1892,
      "max": [
        0.9986703395843506,
        0.9999561309814453,
        0.9998874068260193
      ],
      "min": [
        -0.9986703991889954,
        -0.9999585747718811,
        -0.9999963045120239
      ],
      "type": "VEC3"
    },
    {
      "bufferView": 3,
      "componentType": 5126,
      "count": 1892,
      "max": [
        0.9999819993972778,
        0.9301995038986206,
        0.999620795249939,
        1.0
      ],
      "min": [
        -0.9998328685760498,
        -0.9301819801330566,
        -0.9996207356452942,
        1.0
      ],
      "type": "VEC4"
    },
    {
      "bufferView": 1,
      "componentType": 5126,
      "count": 1892,
      "max": [
        1.0017714500427246,
        1.0068789720535278
      ],
      "min": [
        0.006402973085641861,
        0.005114021245390177
      ],
      "type": "VEC2"
    },
    {
      "bufferView": 1,
      "byteOffset": 15136,
      "componentType": 5126,
      "count": 1892,
      "max": [
        1.0017714500427246,
        1.0068789720535278
      ],
      "min": [
        0.006402973085641861,
        0.005114021245390177
      ],
      "type": "VEC2"
    },
    {
      "bufferView": 0,
      "componentType": 5125,
      "count": 9084,
      "type": "SCALAR"
    }
  ],
  "asset": {
    "extras": {
      "author": "SunnyBuns (https://sketchfab.com/SunnyBuns)",
      "license": "CC-BY-4.0 (http://creativecommons.org/licenses/by/4.0/)",
      "source": "https://sketchfab.com/3d-models/dinosaur-plush-42cb08ae19ab4c2cb8fd16cc6f08eea8",
      "title": "Dinosaur Plush"
    },
    "generator": "Sketchfab-14.81.0",
    "version": "2.0"
  },
  "bufferViews": [
    {
      "buffer": 0,
      "byteLength": 36336,
      "name": "floatBufferViews",
      "target": 34963
    },
    {
      "buffer": 0,
      "byteLength": 30272,
      "byteOffset": 36336,
      "byteStride": 8,
      "name": "floatBufferViews",
      "target": 34962
    },
    {
      "buffer": 0,
      "byteLength": 45408,
      "byteOffset": 66608,
      "byteStride": 12,
      "name": "floatBufferViews",
      "target": 34962
    },
    {
      "buffer": 0,
      "byteLength": 30272,
      "byteOffset": 112016,
      "byteStride": 16,
      "name": "floatBufferViews",
      "target": 34962
    }
  ],
  "buffers": [
    {
      "byteLength": 142288,
      "uri": "scene.bin"
    }
  ],
  "images": [
    {
      "uri": "textures/default_baseColor.png"
    },
    {
      "uri": "textures/default_metallicRoughness.png"
    },
    {
      "uri": "textures/default_normal.png"
    }
  ],
  "materials": [
    {
      "doubleSided": true,
      "name": "default",
      "normalTexture": {
        "index": 2
      },
      "pbrMetallicRoughness": {
        "baseColorTexture": {
          "index": 0
        },
        "metallicRoughnessTexture": {
          "index": 1
        }
      }
    }
  ],
  "meshes": [
    {
      "name": "Group39264_default_0",
      "primitives": [
        {
          "attributes": {
            "NORMAL": 1,
            "POSITION": 0,
            "TANGENT": 2,
            "TEXCOORD_0": 3,
            "TEXCOORD_1": 4
          },
          "indices": 5,
          "material": 0,
          "mode": 4
        }
      ]
    }
  ],
  "nodes": [
    {
      "children": [
        1
      ],
      "matrix": [
        1.0,
        0.0,
        0.0,
        0.0,
        0.0,
        2.220446049250313e-16,
        -1.0,
        0.0,
        0.0,
        1.0,
        2.220446049250313e-16,
        0.0,
        0.0,
        0.0,
        0.0,
        1.0
      ],
      "name": "Sketchfab_model"
    },
    {
      "children": [
        2
      ],
      "matrix": [
        0.009999999776482582,
        0.0,
        0.0,
        0.0,
        0.0,
        0.0,
        0.009999999776482582,
        0.0,
        0.0,
        -0.009999999776482582,
        0.0,
        0.0,
        0.0,
        0.0,
        0.0,
        1.0
      ],
      "name": "e286466685cc4f569902d7ec129a4fce.fbx"
    },
    {
      "children": [
        3
      ],
      "name": "RootNode"
    },
    {
      "children": [
        4
      ],
      "matrix": [
        1.2722097635269165,
        0.0,
        0.0,
        0.0,
        0.0,
        2.824873143241017e-16,
        -1.2722097635269165,
        0.0,
        0.0,
        1.2722097635269165,
        2.824873143241017e-16,
        0.0,
        0.0,
        -9.79813289642334,
        0.0,
        1.0
      ],
      "name": "Group39264"
    },
    {
      "mesh": 0,
      "name": "Group39264_default_0"
    }
  ],
  "samplers": [
    {
      "magFilter": 9729,
      "minFilter": 9987,
      "wrapS": 10497,
      "wrapT": 10497
    }
  ],
  "scene": 0,
  "scenes": [
    {
      "name": "Sketchfab_Scene",
      "nodes": [
        0
      ]
    }
  ],
  "textures": [
    {
      "sampler": 0,
      "source": 0
    },
    {
      "sampler": 0,
      "source": 1
    },
    {
      "sampler": 0,
      "source": 2
    }
  ]
}
