{
  "accessors": [
    {
      "bufferView": 2,
      "componentType": 5126,
      "count": 2466,
      "max": [
        0.0655328631401062,
        0.06336235255002975,
        0.07770770788192749
      ],
      "min": [
        -0.04918201267719269,
        -0.14099633693695068,
        -0.0867510661482811
      ],
      "type": "VEC3"
    },
    {
      "bufferView": 2,
      "byteOffset": 29592,
      "componentType": 5126,
      "count": 2466,
      "max": [
        1.0,
        1.0,
        1.0
      ],
      "min": [
        -1.0,
        -1.0,
        -1.0
      ],
      "type": "VEC3"
    },
    {
      "bufferView": 3,
      "componentType": 5126,
      "count": 2466,
      "max": [
        1.0,
        1.0,
        1.0,
        1.0
      ],
      "min": [
        -1.0,
        -1.0,
        -1.0,
        -1.0
      ],
      "type": "VEC4"
    },
    {
      "bufferView": 1,
      "componentType": 5126,
      "count": 2466,
      "max": [
        0.9868378639221191,
        0.9969170689582825
      ],
      "min": [
        0.0030830143950879574,
        0.0030830143950879574
      ],
      "type": "VEC2"
    },
    {
      "bufferView": 1,
      "byteOffset": 19728,
      "componentType": 5126,
      "count": 2466,
      "max": [
        0.9868378639221191,
        0.9969170689582825
      ],
      "min": [
        0.0030830143950879574,
        0.0030830143950879574
      ],
      "type": "VEC2"
    },
    {
      "bufferView": 1,
      "byteOffset": 39456,
      "componentType": 5126,
      "count": 2466,
      "max": [
        0.9868378639221191,
        0.9969170689582825
      ],
      "min": [
        0.0030830143950879574,
        0.0030830143950879574
      ],
      "type": "VEC2"
    },
    {
      "bufferView": 0,
      "componentType": 5125,
      "count": 9744,
      "type": "SCALAR"
    }
  ],
  "asset": {
    "extras": {
      "author": "dusan.lamos (https://sketchfab.com/dusan.lamos)",
      "license": "CC-BY-4.0 (http://creativecommons.org/licenses/by/4.0/)",
      "source": "https://sketchfab.com/3d-models/vintage-desk-lamp-c53c0856cea944b284ff97465823853e",
      "title": "Vintage desk lamp"
    },
    "generator": "Sketchfab-14.61.0",
    "version": "2.0"
  },
  "bufferViews": [
    {
      "buffer": 0,
      "byteLength": 38976,
      "name": "floatBufferViews",
      "target": 34963
    },
    {
      "buffer": 0,
      "byteLength": 59184,
      "byteOffset": 38976,
      "byteStride": 8,
      "name": "floatBufferViews",
      "target": 34962
    },
    {
      "buffer": 0,
      "byteLength": 59184,
      "byteOffset": 98160,
      "byteStride": 12,
      "name": "floatBufferViews",
      "target": 34962
    },
    {
      "buffer": 0,
      "byteLength": 39456,
      "byteOffset": 157344,
      "byteStride": 16,
      "name": "floatBufferViews",
      "target": 34962
    }
  ],
  "buffers": [
    {
      "byteLength": 196800,
      "uri": "scene.bin"
    }
  ],
  "images": [
    {
      "uri": "textures/desk_lamp_baseColor.png"
    },
    {
      "uri": "textures/desk_lamp_metallicRoughness.png"
    },
    {
      "uri": "textures/desk_lamp_normal.png"
    }
  ],
  "materials": [
    {
      "doubleSided": true,
      "name": "desk_lamp",
      "normalTexture": {
        "index": 2
      },
      "pbrMetallicRoughness": {
        "baseColorTexture": {
          "index": 0
        },
        "metallicRoughnessTexture": {
          "index": 1
        }
      }
    }
  ],
  "meshes": [
    {
      "name": "Cylinder.003_desk_lamp_0",
      "primitives": [
        {
          "attributes": {
            "NORMAL": 1,
            "POSITION": 0,
            "TANGENT": 2,
            "TEXCOORD_0": 3,
            "TEXCOORD_1": 4,
            "TEXCOORD_2": 5
          },
          "indices": 6,
          "material": 0,
          "mode": 4
        }
      ]
    }
  ],
  "nodes": [
    {
      "children": [
        1
      ],
      "matrix": [
        1.0,
        0.0,
        0.0,
        0.0,
        0.0,
        2.220446049250313e-16,
        -1.0,
        0.0,
        0.0,
        1.0,
        2.220446049250313e-16,
        0.0,
        0.0,
        0.0,
        0.0,
        1.0
      ],
      "name": "Sketchfab_model"
    },
    {
      "children": [
        2
      ],
      "matrix": [
        0.009999999776482582,
        0.0,
        0.0,
        0.0,
        0.0,
        0.0,
        0.009999999776482582,
        0.0,
        0.0,
        -0.009999999776482582,
        0.0,
        0.0,
        0.0,
        0.0,
        0.0,
        1.0
      ],
      "name": "desk_lamp.fbx"
    },
    {
      "children": [
        3
      ],
      "name": "RootNode"
    },
    {
      "children": [
        4
      ],
      "matrix": [
        100.0,
        0.0,
        0.0,
        0.0,
        0.0,
        99.9999999999999,
        4.371138828673792e-06,
        0.0,
        0.0,
        -4.371138828673792e-06,
        99.9999999999999,
        0.0,
        0.44369474053382874,
        14.108732223510742,
        0.23258328437805176,
        1.0
      ],
      "name": "Cylinder.003"
    },
    {
      "mesh": 0,
      "name": "Cylinder.003_desk_lamp_0"
    }
  ],
  "samplers": [
    {
      "magFilter": 9729,
      "minFilter": 9987,
      "wrapS": 10497,
      "wrapT": 10497
    }
  ],
  "scene": 0,
  "scenes": [
    {
      "name": "Sketchfab_Scene",
      "nodes": [
        0
      ]
    }
  ],
  "textures": [
    {
      "sampler": 0,
      "source": 0
    },
    {
      "sampler": 0,
      "source": 1
    },
    {
      "sampler": 0,
      "source": 2
    }
  ]
}
